<svg xmlns="http://www.w3.org/2000/svg" width="512" height="512" viewBox="0 0 512 512">
  <defs>
    <linearGradient id="bg" x1="0" y1="0" x2="1" y2="1">
      <stop offset="0" stop-color="#ffe27a"/>
      <stop offset="1" stop-color="#ff9e7a"/>
    </linearGradient>
  </defs>
  <rect width="512" height="512" rx="96" fill="url(#bg)"/>
  <!-- The original "Fordon" car, now the whole app's mark -->
  <g>
    <path d="M96 276 Q120 214 192 214 L248 214 Q310 214 320 276 Z" fill="#ffffff"/>
    <rect x="70" y="272" width="262" height="90" rx="32" fill="#ffffff"/>
    <rect x="148" y="230" width="50" height="42" rx="9" fill="#8fd3ff"/>
    <rect x="206" y="230" width="64" height="42" rx="9" fill="#8fd3ff"/>
    <circle cx="146" cy="366" r="31" fill="#2b2140"/>
    <circle cx="146" cy="366" r="12" fill="#ffffff"/>
    <circle cx="286" cy="366" r="31" fill="#2b2140"/>
    <circle cx="286" cy="366" r="12" fill="#ffffff"/>
  </g>
  <!-- Sound waves: the app speaks every word aloud -->
  <g stroke="#2b2140" stroke-width="12" stroke-linecap="round" fill="none">
    <path d="M368 250 Q390 271 390 296 Q390 321 368 342"/>
    <path d="M400 222 Q432 258 432 296 Q432 334 400 370"/>
  </g>
</svg>
